<svg width="24" height="24" viewBox="0 0 24 24" fill="none" xmlns="http://www.w3.org/2000/svg">
<path d="M8.19777 3.89334C8.19777 3.49554 7.87557 3.17334 7.47777 3.17334H4.70157C4.30377 3.17334 3.98157 3.49554 3.98157 3.89334V4.51854H8.19777V3.89334Z" fill="#8595AA"/>
<path d="M12 9.25916C9.88559 9.25916 8.16479 10.98 8.16479 13.095C8.16479 15.21 9.88499 16.9296 12 16.9296C14.115 16.9296 15.8352 15.2094 15.8352 13.095C15.8352 10.9806 14.115 9.25916 12 9.25916ZM12 15.0144C10.9416 15.0144 10.0806 14.1528 10.0806 13.0944C10.0806 12.8394 10.1328 12.5976 10.2234 12.375C10.0218 12.2352 9.8808 12.0132 9.8808 11.7498C9.8808 11.3226 10.2282 10.9746 10.6554 10.9746C10.9188 10.9746 11.1408 11.115 11.2806 11.3172C11.5032 11.2266 11.7456 11.1744 12 11.1744C13.0584 11.1744 13.92 12.036 13.92 13.0944C13.92 14.1528 13.059 15.0144 12 15.0144Z" fill="#333D4B"/>
<path d="M20.22 4.51855H3.78C2.4546 4.51855 1.38 5.59315 1.38 6.91855V18.9996C1.38 20.3196 2.46 21.3996 3.78 21.3996H20.22C21.5454 21.3996 22.62 20.325 22.62 18.9996V6.91855C22.62 5.59315 21.5454 4.51855 20.22 4.51855ZM12 17.829C9.38881 17.829 7.2648 15.705 7.2648 13.0944C7.2648 10.4838 9.38881 8.35855 12 8.35855C14.6112 8.35855 16.7352 10.4832 16.7352 13.0944C16.7352 15.7056 14.6112 17.829 12 17.829ZM18.0054 9.20395C17.3526 9.20395 16.8234 8.67475 16.8234 8.02195C16.8234 7.36915 17.3526 6.83995 18.0054 6.83995C18.6582 6.83995 19.1874 7.36915 19.1874 8.02195C19.1874 8.67475 18.6582 9.20395 18.0054 9.20395Z" fill="#4E5968"/>
<path d="M12 11.1737C11.7456 11.1737 11.5032 11.2259 11.2806 11.3165C11.3676 11.4419 11.43 11.5853 11.43 11.7491C11.43 12.1763 11.0826 12.5237 10.6554 12.5237C10.4916 12.5237 10.3482 12.4613 10.2228 12.3743C10.1322 12.5969 10.08 12.8393 10.08 13.0937C10.08 14.1521 10.941 15.0137 11.9994 15.0137C13.0578 15.0137 13.9194 14.1521 13.9194 13.0937C13.9194 12.0353 13.059 11.1737 12 11.1737Z" fill="#4E5968"/>
<path d="M11.4301 11.7492C11.4301 11.5854 11.3677 11.442 11.2807 11.3166C11.1409 11.115 10.9189 10.974 10.6555 10.974C10.2283 10.974 9.88086 11.3214 9.88086 11.7492C9.88086 12.0126 10.0219 12.2346 10.2235 12.3744C10.3489 12.4614 10.4923 12.5238 10.6561 12.5238C11.0833 12.5238 11.4307 12.1764 11.4307 11.7492H11.4301Z" fill="white"/>
<path d="M12 8.35925C9.38877 8.35925 7.26477 10.4839 7.26477 13.0951C7.26477 15.7063 9.38877 17.8297 12 17.8297C14.6112 17.8297 16.7352 15.7057 16.7352 13.0951C16.7352 10.4845 14.6112 8.35925 12 8.35925ZM12 16.9291C9.88557 16.9291 8.16477 15.2089 8.16477 13.0945C8.16477 10.9801 9.88497 9.25865 12 9.25865C14.115 9.25865 15.8352 10.9795 15.8352 13.0945C15.8352 15.2095 14.115 16.9291 12 16.9291Z" fill="#D0D6DE"/>
<path d="M18.0054 6.83936C17.3526 6.83936 16.8234 7.36856 16.8234 8.02136C16.8234 8.67416 17.3526 9.20336 18.0054 9.20336C18.6582 9.20336 19.1874 8.67416 19.1874 8.02136C19.1874 7.36856 18.6582 6.83936 18.0054 6.83936Z" fill="#FFE63B"/>
</svg>
